<?xml version="1.0" encoding="utf-8"?>
<!-- Uploaded to: SVG Repo, www.svgrepo.com, Generator: SVG Repo Mixer Tools -->
<svg width="800px" height="800px" viewBox="0 -14.56 352.858 352.858" xmlns="http://www.w3.org/2000/svg"><defs><style>.a{fill:#ffffff;}.b{fill:#211715;}.c{fill:#6e6867;}.d{fill:#3f88c9;}.e{fill:#b5b2b1;}.f{fill:none;}</style></defs><path class="a" d="M138.613,235.252c5.763,3.45,10.269,5.566,16.629,8.96a41.161,41.161,0,0,0,4.634,2.171c2.445.78,6.7-.077,9.394-1.8,2.891.024,6.141-2.62,7.772-4.693l.095-.436q.7-.137,1.388-.34a5.216,5.216,0,0,0,2.7-1.5,12.834,12.834,0,0,0,2.273-4.941,6.392,6.392,0,0,0,2.567-1.111,1.917,1.917,0,0,0,.9-1.3,38.061,38.061,0,0,1,5.526-3.9,11.258,11.258,0,0,1,1.929-.662s6.269.142,2.269-12.451-10.246-8.318-10.246-8.318a17.378,17.378,0,0,1-7.266,1.159,24.085,24.085,0,0,0-11.73,1.152,13.976,13.976,0,0,0-5.042,3.6l-1.049-.407c-.888-.345-3.134,0-4.074.148a32.759,32.759,0,0,0-6.222,2.222,11.476,11.476,0,0,1-4.413-.051s-5.995-1.208-9.069,8.347C133.488,233.822,138.613,235.252,138.613,235.252Z"/><path class="b" d="M137.92,237.164c3.249,1.929,6.581,3.7,9.935,5.442,3.186,1.652,6.322,3.452,9.594,4.93a12.112,12.112,0,0,0,8.288.653c2.775-.682,5.7-2.056,7.289-4.532,1.394-2.173-2.066-4.181-3.454-2.019-1.1,1.715-3.762,2.506-5.688,2.867-2.432.457-4.115-.234-6.267-1.312-5.964-2.987-11.942-6.077-17.678-9.483-2.219-1.317-4.233,2.139-2.019,3.454Z"/><path class="b" d="M169.541,246.579a10.418,10.418,0,0,0,5.176-1.881,16.66,16.66,0,0,0,3.74-3.393,2.177,2.177,0,0,0,.585-1.414,2,2,0,0,0-3.414-1.414,14.527,14.527,0,0,1-1.38,1.5c-.265.251-.538.494-.819.726-.076.062-.153.123-.228.185-.19.156.362-.268.077-.06-.16.117-.319.235-.482.347a14.271,14.271,0,0,1-1.941,1.091c.57-.274,0-.01-.156.043-.174.059-.351.113-.53.159-.157.04-.316.075-.477.1-.345.06.065.022.163-.019a1.065,1.065,0,0,1-.314.025,2,2,0,0,0,0,4Z"/><path class="b" d="M167.3,241.4a28.5,28.5,0,0,0,11.186-.2,7.713,7.713,0,0,0,4.321-2.377,14.287,14.287,0,0,0,2.4-4.818c.751-2.468-3.109-3.523-3.858-1.063a9.572,9.572,0,0,1-1.539,3.264,5.129,5.129,0,0,1-2.961,1.274,23.872,23.872,0,0,1-8.488.064,2.068,2.068,0,0,0-2.461,1.4,2.014,2.014,0,0,0,1.4,2.46Z"/><path class="b" d="M169.108,233.277c3.227,1.144,6.994,1.177,10.382,1.329,1.085.049,2.177.109,3.264.107,2.223,0,5.125-1.184,5.968-3.4a5.331,5.331,0,0,0-2.234-6.093,11.468,11.468,0,0,0-3.9-1.467c-2.844-.769-5.663-1.641-8.467-2.544-1.674-.539-3.344-1.093-5-1.7q-.534-.195-1.065-.4c-.132-.052-1.06-.44-.566-.223a8.217,8.217,0,0,1-1.171-.588c-2.168-1.4-4.176,2.06-2.019,3.454a27.76,27.76,0,0,0,6.124,2.446c2.774.941,5.572,1.813,8.382,2.639,1.035.305,2.072.606,3.116.88.969.254,2.155.373,2.8,1.23a2.484,2.484,0,0,1,.3.776c.08.233-.193.321.031.12a3.637,3.637,0,0,1-2.272.874c-.946,0-1.9-.049-2.842-.088-3.25-.134-6.715-.122-9.773-1.206a2.018,2.018,0,0,0-2.46,1.4,2.04,2.04,0,0,0,1.4,2.46Z"/><path class="b" d="M146.114,214.691a17.215,17.215,0,0,0,4.3.27,15.171,15.171,0,0,0,4.034-1.411,17.369,17.369,0,0,1,3.77-1.094l.325-.048c-.416.059.025,0,.107-.01.294-.031.587-.062.882-.081a8.955,8.955,0,0,1,.941-.018c.112,0,.223.012.334.025-.5-.056-.1.008.013.047a2,2,0,1,0,1.064-3.857,8.325,8.325,0,0,0-3.607-.07,18.394,18.394,0,0,0-3.983.905c-.684.247-1.359.52-2.03.8q-.615.258-1.229.519s-.48.2-.366.156c.168-.07-.217.085-.262.1a2.414,2.414,0,0,1-.279.068c.414-.108.05-.008-.077,0-.313.013-.625.018-.938.009-.382-.012-.763-.038-1.143-.074-.153-.014-.306-.031-.458-.048-.723-.079.342.056-.338-.047a2.066,2.066,0,0,0-2.46,1.4,2.015,2.015,0,0,0,1.4,2.461Z"/><path class="b" d="M185.91,203.011a16.709,16.709,0,0,1-5.512,1.148c-2.053.015-4.076-.37-6.141-.278-3.516.155-7.479.9-10.36,3.037a40.93,40.93,0,0,0-8.033,8.452,6.013,6.013,0,0,0-1.365,5.039,5.619,5.619,0,0,0,2.946,3.621c4.541,2.041,8.076-2.223,11.1-4.834,1.95-1.687-.89-4.506-2.829-2.829-1.449,1.254-2.737,3.084-4.556,3.823-1,.406-2.235.53-2.694-.489-.564-1.251,1.438-3.047,2.2-3.958a45.06,45.06,0,0,1,4.024-4.31,14.662,14.662,0,0,1,9.772-3.561c2.13-.077,4.24.364,6.359.276a20.72,20.72,0,0,0,6.157-1.28c2.4-.871,1.365-4.738-1.063-3.857Z"/><path class="b" d="M189.242,230.625c.812-.53,1.642-1.032,2.478-1.522a22.3,22.3,0,0,1,2.046-1.135l-.477.2a17.191,17.191,0,0,1,1.662-.534,2,2,0,1,0-1.063-3.857,16.326,16.326,0,0,0-2.232.776c-.426.2-.834.449-1.243.683-1.079.617-2.149,1.253-3.19,1.933a2,2,0,1,0,2.019,3.454Z"/><path class="a" d="M318.322,270.993c-.92,1.552-2.506,4.311-3.26,5.949-3.2,6.948-4.15,9.987-4.373,18.139a11.678,11.678,0,0,0,.321,3.8,5.394,5.394,0,0,0,4.531,3.122l1.353.037c-.061,1.153-.11,2.388-.136,3.755-.041,2.076-.272,2.821-.307,4.9-.032,1.883.363,4.354,2.1,5.125a3.5,3.5,0,0,0,4.095-1.433c.107.768.173,1.235.173,1.235a3.661,3.661,0,0,0,1.941,2.771,3.763,3.763,0,0,0,4.535-1.689,7.237,7.237,0,0,0,.661-1.942c.166.4.265.635.265.635.752,1.788,4.094,2.412,5.478,1.044a5.9,5.9,0,0,0,1.282-3.782q.1-1.107.2-2.2l.634,1.328c.581,1.219,2.609,1.394,3.72.815a4.136,4.136,0,0,0,1.338-1.551c1.557-3.938,2.345-13.018,2.551-14.854a102.19,102.19,0,0,0,.258-14.233q-.23-4.252-.594-8.5l-.1-4.91-24.778-1.222Z"/><path class="a" d="M143.177,210.53c-.7-.28-1.39-.556-2.028-.806l-2.584-.96c-3.206,8.562-6.258,17.17-9.3,25.789l2.959.946,5.883,2.047c3.273-8.284,6.514-18.384,8.627-25.627C145.664,211.522,144.405,211.02,143.177,210.53Z"/><path class="a" d="M189.5,202.867l1.665-.568s.822-.184,1.906-.429q5.35,11.392,9.625,23.251l-1.571.5-5.689,2.135a196.069,196.069,0,0,1-9.5-23.67Z"/><path class="a" d="M82.911,54.989c-.034,5.774-.1,13.788,5.079,16.833a5.362,5.362,0,0,1,2.36,2.545C91.511,77.286,89,78.486,87.4,80.086a8.8,8.8,0,0,0-2.138,3.673c-.277,3.115-1.421,10.094-3.541,13.776a11.035,11.035,0,0,1-6.263,5.378,27.392,27.392,0,0,1-13.573.808,1.911,1.911,0,0,0-2.233,1.031c-1.905,4.206-4.629,9.6-5.418,11.569l-.55,1.377-.556-.472c-9.092-7.728-19.174-8.2-32.194-12.331l.267-6.574a9.033,9.033,0,0,0-.449-3.462c6.641-2.35,15.349-8.108,18.292-14.173a17.133,17.133,0,0,1-6.28-12.622c-.057-2.383.6-5.07,2.66-6.268a5.118,5.118,0,0,1,4.558-.109,8.536,8.536,0,0,1,3.524,3.147c1.213-2.8,2.86-6.359,4.13-9.065.8-1.7,1.443-3.058,1.743-3.693.277-.587.8-1.412,1.419-1.6,1.151-.34,3.015,2.354,4.113,3.375.45-.979,2.852-9.987,4.938-9.877,3.793.091,11.044,0,15.458-1.156l6.131-1.011a3.874,3.874,0,0,0,.606-.318c1.232,3.96.889,9.246.866,13.5Z"/><path class="a" d="M257.424,147.692c11.654-17.877,21.947-32.857,34.816-48.447a20.75,20.75,0,0,0,2.362-2.9c.855-1.279,1.67-3.328,2.48-4.629a37.038,37.038,0,0,0-2.018-5.244c-10.58,4.539-19.984,9.23-29.22,12.408a23.344,23.344,0,0,0,1.559,1.9c-3.113.678-4.7,1.457-4.7,3.536,0,.805-.4,7.58-.341,9.481-1.275,6.117-4.561,26.975-4.939,33.9Z"/><path class="a" d="M289.309,88.994q2.867-1.278,5.845-2.562a19.172,19.172,0,0,1,2.07-9.932A28.744,28.744,0,0,1,277.5,64.76a16.926,16.926,0,0,0,4.7-13.143c-.224-2.345-1.183-4.9-3.347-5.837a5.057,5.057,0,0,0-4.484.428,8.4,8.4,0,0,0-3.079,3.494c-1.812-5.556-9.648-11.106-15.7-12.361-9.309-2.364-18.563-3.849-24.988-3.133a41.268,41.268,0,0,0,.86,10.477c.713,5.661,1.718,13.517-3,17.112a5.3,5.3,0,0,0-2.016,2.775c-.8,3,1.813,3.882,3.566,5.264a8.69,8.69,0,0,1,2.529,3.353c.638,3.024,2.581,9.736,5.095,13.1a10.9,10.9,0,0,0,6.777,4.54c4.511.894,10.436.544,14.058-1.069a1.892,1.892,0,0,1,2.384.76c.389.645.966,1.522,1.352,2.282L265.53,99l.314-.12C273.372,96.289,281.012,92.693,289.309,88.994Z"/><path class="c" d="M249.2,211.091a474.19,474.19,0,0,1-45.334,17.341,270.025,270.025,0,0,0-11.723-28.518c17.946-8.371,27.709-14.131,45.946-24.371,5.453-3.978,8.55-15.918,10.1-24.978s4.313-22.868,8.756-30.917c1.3-2.349,3.085-4.688,5.414-5.853-1.275,6.116-4.559,26.964-4.939,33.891,12.853-19.711,24.048-35.9,38.868-53.268l5.456,2.808c2.111,1.212,4.5,2.684,6.987,4.3,7.454,4.834,15.753,10.92,19.873,14.98a39.3,39.3,0,0,1,7.017,8.834,47.138,47.138,0,0,1,3.805,10.117c6.544,23.261,10.624,41.19,11.327,64.684.631,21.08-1.935,43.678-4.319,70.3-6.233.416-19-.31-27.717-.866-.1,2.29-.2,4.277-.291,4.543-.222.667-12.459,3.115-12.459,3.115-11.57,2.659-30.988-.525-39.255-3a2.689,2.689,0,0,1-1.953-2.468c-.834-25.531-.45-38.889.606-54.581.356-5.291-1.178-14.724-2.065-19.959.1,4.418-5.213,9.651-14.1,13.873Z"/><path class="d" d="M11.015,276.773c-.067,1.2.109,2.416,1.011,2.9,9.974,6.1,34.381,12.966,45.544,13.372s22.283-1.231,33.322-2.864a5.938,5.938,0,0,0,3.566-1.366,5.15,5.15,0,0,0,1.068-3.052c.873-7.719,2.208-27.478,2.093-35.243-.1-6.772-1.513-14.073-1.891-16.873l-1.254-9.275a256.946,256.946,0,0,0,33.5,13.839c3.642-10.336,7.274-20.661,11.14-30.919-16.634-8.042-28.383-15.261-44.045-25.081-11-11.726-18.416-29.979-28.565-40.772-1.407-2.1-2.673-4-2.673-4-2.421-3.632-6.96-15.362-10.707-20.216-9.276-7.884-19.583-8.217-32.988-12.584-1.027,3.21-2.5,8.853-3.178,11.69-3.291,6.7-5.149,10.232-7.566,19.786-5.65,22.337.885,46.957,4.85,69.654,1.986,11.367,4.2,25.038,4.078,36.575-2.421,12.863-6.053,18.39-7.317,34.426Z"/><path class="d" d="M262.548,107.855c.081-1.715.156-3.191.156-3.541,0-1.58.916-2.409,2.723-3.014l2.22-.254a77.483,77.483,0,0,0,6.528,6.124l-1.738,1.874c-1.3,3.815-6.563,21.3-8.785,28.63v.56q-3.07,4.607-6.228,9.458c.378-6.922,3.664-27.78,4.939-33.9C262.331,112.72,262.444,110.086,262.548,107.855Z"/><path class="b" d="M316.6,269.983c-3.247,5.5-6.346,11.461-7.32,17.84a36.325,36.325,0,0,0-.446,10.475,7.063,7.063,0,0,0,6.712,5.709c2.575.049,2.575-3.951,0-4a2.519,2.519,0,0,1-.851-.194,3.671,3.671,0,0,1-1.36-.943c-.774-.895-.669-2.1-.654-3.216a43.761,43.761,0,0,1,.8-8.655c1.16-5.353,3.808-10.32,6.572-15,1.312-2.221-2.144-4.236-3.454-2.019Z"/><path class="b" d="M315.7,288.563c-.085,3.889-.436,7.754-.7,11.633-.145,2.158-.167,4.318-.279,6.477a40.051,40.051,0,0,0-.243,5.11c.266,3.534,2.535,7.208,6.611,6.052,4.519-1.282,4.361-6.142,4.556-9.932.228-4.441.568-8.876.764-13.319.113-2.574-3.887-2.568-4,0-.189,4.3-.514,8.589-.741,12.886-.064,1.192-.107,2.386-.165,3.578a4.171,4.171,0,0,1-.528,2.228c-.782,1.126-1.86.92-2.262-.282-.552-1.65-.218-3.549-.071-5.238.184-2.118.159-4.252.283-6.374.25-4.276.678-8.534.771-12.819.056-2.575-3.944-2.575-4,0Z"/><path class="b" d="M320.888,316.156a5.284,5.284,0,0,0,5.632,4.446c3.191-.369,4.985-2.881,5.464-5.892.515-3.231.615-6.56.868-9.82.256-3.289.51-6.578.785-9.865.215-2.566-3.786-2.551-4,0-.414,4.949-.777,9.9-1.179,14.852-.1,1.227-.155,2.469-.32,3.689a4.206,4.206,0,0,1-.972,2.63c-1.183.995-2.175.257-2.421-1.1a2.018,2.018,0,0,0-2.461-1.4,2.042,2.042,0,0,0-1.4,2.46Z"/><path class="b" d="M328.491,316.409c.954,1.977,3.442,2.922,5.53,2.75,2.791-.229,4.383-2.373,4.781-5.019.44-2.928.6-5.924.872-8.873.285-3.089.532-6.181.677-9.28.12-2.573-3.881-2.567-4,0-.223,4.782-.7,9.544-1.154,14.308-.1,1.029-.138,2.078-.3,3.1-.1.648-.339,1.519-.716,1.7a1.989,1.989,0,0,1-2.235-.7,2.02,2.02,0,0,0-2.737-.718,2.043,2.043,0,0,0-.717,2.737Z"/><path class="b" d="M343.088,273.473a125.182,125.182,0,0,1,.24,23.643c-.29,2.82-.607,5.638-1.114,8.429a31,31,0,0,1-1.026,4.3,1.55,1.55,0,0,1-.672,1.02c-.215.1-.853.12-.974-.086-1.3-2.219-4.761-.208-3.454,2.019a4.546,4.546,0,0,0,4.118,2.122,4.929,4.929,0,0,0,4.126-2.392c1.432-2.213,1.7-5.486,2.087-8.028a114.7,114.7,0,0,0,1.394-16.938c.011-4.706-.32-9.407-.725-14.093-.219-2.545-4.221-2.568-4,0Z"/><path class="e" d="M248.155,4.7q-.252.12-.5.243c-5.814,2.931-8.967,6.321-12.126,11.443-3.316,5.378-6.206,11.556-4.956,17.827,6.426-.72,15.688.765,25.006,3.131,6.051,1.255,13.887,6.805,15.7,12.361a8.4,8.4,0,0,1,3.079-3.494,5.057,5.057,0,0,1,4.484-.428c2.164.933,3.123,3.492,3.347,5.837a16.926,16.926,0,0,1-4.7,13.143A28.745,28.745,0,0,0,297.227,76.5a40.8,40.8,0,0,1,2.077-3.786c2.213-4,3.865-5.961,6.734-10.452a25.511,25.511,0,0,0,3.384-18.7,24.32,24.32,0,0,1-.91-5.058c0-1.128.259-2.24.363-3.365.354-3.815-1.032-7.6-2.921-10.931a39.1,39.1,0,0,0-8.153-9.966,46.136,46.136,0,0,0-13.091-8.08C275.948,2.58,266.284,1.53,256.841,2.2A26.136,26.136,0,0,0,248.155,4.7Z"/><path class="e" d="M47.637,55.769c.8-1.7,1.443-3.058,1.743-3.693.277-.587.8-1.412,1.419-1.6,1.151-.34,3.015,2.354,4.113,3.375.45-.979,2.852-9.987,4.938-9.877,3.793.091,11.044,0,15.458-1.156l6.131-1.011c2.456-1.025,3.3-4.33,3.121-6.985a14.066,14.066,0,0,0-2.929-6.8,49.674,49.674,0,0,0-7.358-6.182,59.917,59.917,0,0,0-10.394-5.087C53.714,12.126,23.293,9.535,11.13,27.555c-6.007,5.405-8.8,14.073-9.118,26.121s8.519,27.6,15.055,35.122a20.778,20.778,0,0,1,3.69,6.06c6.637-2.349,15.345-8.107,18.288-14.172a17.133,17.133,0,0,1-6.28-12.622c-.057-2.383.6-5.07,2.66-6.268a5.118,5.118,0,0,1,4.558-.109,8.536,8.536,0,0,1,3.524,3.147C44.72,62.03,46.367,58.475,47.637,55.769Z"/><path class="b" d="M273.027,50.67c.937-1.75,3.1-4.258,5.326-2.9,1.74,1.062,1.939,3.785,1.906,5.592A14.9,14.9,0,0,1,273.6,65.4c-2.151,1.4-.148,4.861,2.019,3.454a18.88,18.88,0,0,0,8.562-17.381c-.354-3.316-1.9-6.914-5.427-7.831-3.928-1.02-7.418,1.726-9.176,5.012-1.215,2.269,2.237,4.292,3.453,2.019Z"/><path class="b" d="M234.338,78.936a14.237,14.237,0,0,0,5.477-1.207,6.96,6.96,0,0,0,2.471-1.75,2.139,2.139,0,0,0,.586-1.414,2,2,0,0,0-3.414-1.414,3.65,3.65,0,0,1-.323.335c-.065.06-.133.115-.2.172-.236.2.411-.307.239-.183l-.136.1a7.624,7.624,0,0,1-1.427.78l.478-.2a11.429,11.429,0,0,1-2.836.739l.532-.071a14.315,14.315,0,0,1-1.448.115,2,2,0,0,0,0,4Z"/><path class="b" d="M238.033,52.388c-.323,1.705.362,5.484,3.371,5.51,3.934-.42,3.7-5.048,2.161-7.082C242.309,49.151,239.047,48.734,238.033,52.388Z"/><path class="b" d="M228.55,35.477c-.073,6.065,1.824,11.951,1.477,18.026-.134,2.343-.687,4.837-2.5,6.471a9.513,9.513,0,0,0-2.7,3.218,5.451,5.451,0,0,0-.051,4.539c1.119,2.359,3.917,3,5.3,5.12a8.911,8.911,0,0,1,1,2.842q.5,1.908,1.137,3.776c1.839,5.412,4.618,11.075,10.455,12.975a25.059,25.059,0,0,0,10.1.7,24.024,24.024,0,0,0,4.971-.978c.322-.1.638-.223.952-.35.584-.237.68-.1.424-.288a7.77,7.77,0,0,1,1.353,2.283c1.207,2.274,4.661.255,3.453-2.019-.662-1.247-1.42-2.86-2.669-3.609-1.534-.921-2.867-.458-4.413.071a23.422,23.422,0,0,1-8.747,1.015c-2.693-.137-5.3-.586-7.347-2.477a17.209,17.209,0,0,1-4.072-6.7,69.305,69.305,0,0,1-2.121-7c-.753-2.848-2.931-4.5-5.19-6.129-.535-.387-1.093-.783-1.082-1.495.021-1.415,1.689-2.216,2.525-3.106a12.625,12.625,0,0,0,3.053-7.169c.863-6.636-1.391-13.1-1.312-19.716.031-2.575-3.969-2.576-4,0Z"/><path class="f" d="M301.017,69.569c5.773-10.727,7.58-20.815,6.923-29.6C306.635,20.976,296.322,11.348,288.5,7.742a45.571,45.571,0,0,0-34.561-1.827C243.859,9.294,230.86,17.92,230.55,35.477"/><path class="b" d="M276.891,67.256a30.841,30.841,0,0,0,17.056,10.7,2.042,2.042,0,0,0,2.46-1.4,2.022,2.022,0,0,0-1.4-2.46,27.373,27.373,0,0,1-15.291-9.671,2.012,2.012,0,0,0-2.828,0,2.049,2.049,0,0,0,0,2.829Z"/><path class="b" d="M255.052,39.269A23.71,23.71,0,0,1,267.3,46.78a11.366,11.366,0,0,1,1.151,1.6c.195.319.378.645.544.981,0,.007.265.577.123.241.074.177.138.359.2.54a2.05,2.05,0,0,0,2.46,1.4,2.019,2.019,0,0,0,1.4-2.461c-1.27-3.634-4-6.488-7.006-8.787a25.868,25.868,0,0,0-10.058-4.878,2.048,2.048,0,0,0-2.461,1.4,2.021,2.021,0,0,0,1.4,2.46Z"/><path class="b" d="M240.489,34.677c.009-.251.022-.5.046-.75,0-.023.069-.5.018-.181s.022-.115.033-.179a11.53,11.53,0,0,1,.359-1.455c.075-.239.162-.473.249-.708.175-.478-.183.385.029-.077.041-.091.082-.183.125-.273a12.373,12.373,0,0,1,.768-1.378c.136-.21.286-.411.426-.618.158-.235-.3.363.008-.013.079-.1.158-.194.24-.289a11.794,11.794,0,0,1,1.044-1.077c.185-.169.379-.326.57-.487s-.3.206.013-.006c.1-.07.2-.145.307-.215a11.611,11.611,0,0,1,1.363-.79,2.011,2.011,0,0,0,.717-2.736,2.049,2.049,0,0,0-2.736-.717,14.022,14.022,0,0,0-7.579,11.949,2.017,2.017,0,0,0,2,2,2.041,2.041,0,0,0,2-2Z"/><path class="b" d="M247.758,35.925c.11-.161.237-.313.342-.477-.042.065-.267.334-.1.128.062-.076.123-.152.186-.226q.359-.426.756-.817.417-.411.872-.781c.06-.049.123-.1.183-.146-.418.353-.183.142-.078.065.158-.115.319-.227.481-.335q.465-.306.955-.572.233-.125.469-.24c.088-.043.177-.084.265-.125.069-.031.4-.172.083-.04s.043-.015.087-.032l.219-.083q.274-.1.555-.188c.373-.117.751-.213,1.133-.294a2.014,2.014,0,0,0,1.4-2.46,2.047,2.047,0,0,0-2.46-1.4,14.421,14.421,0,0,0-8.8,6,2.01,2.01,0,0,0,.717,2.736,2.049,2.049,0,0,0,2.736-.717Z"/><path class="b" d="M232.426,33.3c-.693-5.638,1.745-10.834,4.605-15.536a27.949,27.949,0,0,1,9.048-9.658,28.511,28.511,0,0,1,7-3.159,29.832,29.832,0,0,1,8.11-.936,61.194,61.194,0,0,1,17.365,2.149c10.489,2.95,20.228,9.439,25.669,19.054a18.816,18.816,0,0,1,2.668,7.728,20.933,20.933,0,0,1-.271,4.115,13.7,13.7,0,0,0,.33,4.747,29.706,29.706,0,0,1,.97,7.927,24.076,24.076,0,0,1-1.593,7.568,38.679,38.679,0,0,1-4.513,7.714c-1.491,2.19-2.907,4.4-4.241,6.687-3.093,5.311-5.216,10.712-4.118,16.956a2.016,2.016,0,0,0,2.46,1.4,2.045,2.045,0,0,0,1.4-2.46c-.988-5.62,1.69-10.446,4.423-15.119,2.7-4.617,6.307-8.718,8.3-13.726a27.783,27.783,0,0,0,1.105-16.636,13.672,13.672,0,0,1-.574-4.575,27.619,27.619,0,0,0,.327-4.595,22.307,22.307,0,0,0-2.582-8.575c-5.4-10.566-15.807-18-26.941-21.539A63.291,63.291,0,0,0,263.259.017a44.787,44.787,0,0,0-8.949.519A29.621,29.621,0,0,0,246.283,3.4a31.07,31.07,0,0,0-11.971,11.171c-3.534,5.514-6.713,12-5.886,18.733a2.063,2.063,0,0,0,2,2,2.013,2.013,0,0,0,2-2Z"/><path class="b" d="M9.015,276.773a5.755,5.755,0,0,0,.826,3.536,7.185,7.185,0,0,0,2.633,1.931c1.718.942,3.5,1.769,5.3,2.54a133.492,133.492,0,0,0,13.483,4.878c8.329,2.552,17.127,4.927,25.869,5.367a121.715,121.715,0,0,0,20.092-.968c3.443-.4,6.877-.877,10.307-1.375,2.7-.393,6.3-.351,8.348-2.454,1.609-1.649,1.633-4.142,1.848-6.3.186-1.868.348-3.739.5-5.61q.572-7.059.957-14.13c.246-4.482.5-8.984.446-13.475-.071-5.936-1.155-11.743-1.966-17.6a2.012,2.012,0,0,0-2.46-1.4,2.053,2.053,0,0,0-1.4,2.46c.659,4.766,1.514,9.481,1.753,14.3.188,3.792.011,7.6-.159,11.394-.369,8.218-.887,16.451-1.731,24.635a10.31,10.31,0,0,1-.361,2.351c-.364,1.03-1.437,1.147-2.407,1.311-3.076.521-6.182.924-9.273,1.337A160.617,160.617,0,0,1,62.492,291.1c-8.678.117-17.038-1.612-25.378-3.9a150.69,150.69,0,0,1-14.574-4.755c-1.967-.763-3.91-1.582-5.808-2.5-.867-.42-1.725-.86-2.566-1.331a4.217,4.217,0,0,1-1.13-.66c.157.2.085.083.05.013a2.678,2.678,0,0,1-.071-1.185c.088-2.575-3.912-2.572-4,0Z"/><path class="b" d="M54.543,115.812c-9.642-8.1-22.281-9.35-33.87-13.1a2.035,2.035,0,0,0-2.461,1.4c-.78,2.462-1.453,4.958-2.108,7.455q-.432,1.649-.842,3.3a15.76,15.76,0,0,1-1.323,3.093,81.59,81.59,0,0,0-8.572,31.527,113.5,113.5,0,0,0,.611,19.242c1.4,12.985,4.286,25.741,6.518,38.594,1.066,6.134,2.076,12.281,2.8,18.465.362,3.1.657,6.21.84,9.327.166,2.835.469,5.8-.112,8.594-1.048,5.033-2.592,9.928-3.923,14.888a101.5,101.5,0,0,0-3.09,18.174c-.207,2.566,3.794,2.552,4,0A93.745,93.745,0,0,1,15.631,260.9c1.115-4.334,2.482-8.6,3.533-12.949q.448-1.857.828-3.73a19.587,19.587,0,0,0,.324-4.372c-.051-3.05-.241-6.1-.513-9.136-.562-6.281-1.467-12.53-2.486-18.752-2.064-12.608-4.867-25.1-6.656-37.748-1.781-12.594-2.4-25.6.783-38.024a81.049,81.049,0,0,1,5.524-15.331c.567-1.173,1.182-2.327,1.722-3.512a23.177,23.177,0,0,0,1.039-3.821c.723-2.8,1.467-5.592,2.341-8.346l-2.461,1.4c10.782,3.487,23.133,4.528,32.106,12.069,1.958,1.646,4.8-1.169,2.828-2.828Z"/><path class="b" d="M23.1,149.088c-2.911,19.4,11.255,36.3,24.691,48.389a168.441,168.441,0,0,0,21.89,16.5c4.274,2.741,9.026,4.791,13.567,7.062,4.329,2.166,8.662,4.326,13.031,6.411a262.663,262.663,0,0,0,31.165,12.684,2.039,2.039,0,0,0,2.46-1.4c3.64-10.333,7.279-20.666,11.139-30.919a2,2,0,0,0-.919-2.259A440.824,440.824,0,0,1,98.681,182.11a18.285,18.285,0,0,1-2.434-1.572,19.151,19.151,0,0,1-1.77-2q-1.541-1.818-2.952-3.738c-2.04-2.766-3.929-5.64-5.76-8.548-3.616-5.745-6.986-11.65-10.814-17.26-3.855-5.649-8.24-11.209-14.11-14.879-2.189-1.369-4.2,2.091-2.019,3.454,4.965,3.1,8.757,7.81,12.067,12.562,3.869,5.554,7.238,11.436,10.818,17.177,1.824,2.924,3.7,5.82,5.712,8.617q1.486,2.066,3.082,4.053a24.789,24.789,0,0,0,3.361,3.805,52.105,52.105,0,0,0,5.333,3.364q2.636,1.643,5.281,3.27,4.873,2.993,9.805,5.89,11.664,6.819,23.828,12.713l-.919-2.259c-3.86,10.253-7.5,20.587-11.139,30.919l2.46-1.4c-18.3-6-35.31-14.792-52.514-23.322a91.3,91.3,0,0,1-11.7-7.389q-5.217-3.667-10.087-7.788A107.552,107.552,0,0,1,35.927,178.7c-5.849-8.168-10.512-18.238-8.965-28.544a2.065,2.065,0,0,0-1.4-2.46,2.015,2.015,0,0,0-2.461,1.4Z"/><path class="b" d="M52.768,131.433c-5.56-2.413-11.855-3.419-17.707-1.386a18.353,18.353,0,0,0-10.982,9.973,2.068,2.068,0,0,0,.718,2.736,2.014,2.014,0,0,0,2.736-.717,14.516,14.516,0,0,1,8.592-8.135,20.21,20.21,0,0,1,14.624.983,2.065,2.065,0,0,0,2.736-.717,2.015,2.015,0,0,0-.717-2.737Z"/><path class="b" d="M85.691,291.03c-1.638,8.536-2.684,17.212-4.032,25.8-.231,1.469-.439,2.945-.719,4.406-.483,2.515,3.371,3.593,3.857,1.063,1.638-8.536,2.684-17.212,4.032-25.8.231-1.469.439-2.946.719-4.407.483-2.515-3.372-3.592-3.857-1.063Z"/><path class="b" d="M13.546,282.225c-.525,4.076-.562,8.258-.78,12.358q-.477,9.013-.907,18.03c-.106,2.162-.209,4.324-.324,6.486-.137,2.572,3.863,2.565,4,0,.562-10.536,1-21.079,1.627-31.612.105-1.75.16-3.521.384-5.262a2.01,2.01,0,0,0-2-2,2.052,2.052,0,0,0-2,2Z"/><path class="b" d="M255.424,147.261c-.14,6.583-.611,13.2-.068,19.78a117.477,117.477,0,0,0,3.017,16.668c1.168,5.05,2.341,10.075,3.194,15.189a101.464,101.464,0,0,1,1.854,16.521c0,4.681-.543,9.4-.742,14.076q-.327,7.676-.362,15.358c-.034,6.146.053,12.292.2,18.436q.062,2.535.137,5.069c.054,1.835-.219,4.035.755,5.679,1.251,2.111,3.93,2.491,6.122,3.017a120.506,120.506,0,0,0,17.986,2.834c6.287.529,12.79.663,18.982-.726,2.511-.563,1.448-4.421-1.063-3.857a55.9,55.9,0,0,1-15.679.748,116.211,116.211,0,0,1-16-2.155,61.022,61.022,0,0,1-6.085-1.467c-1.332-.421-.942-1.64-.98-2.872q-.082-2.687-.151-5.373c-.154-6.093-.249-12.188-.23-18.284.031-9.591.482-19.147,1.057-28.717.328-5.462-.629-11.054-1.471-16.432-.747-4.766-1.66-9.465-2.751-14.166-1.378-5.938-2.989-11.949-3.646-18.022-.764-7.07-.228-14.215-.077-21.3.055-2.575-3.945-2.574-4,0Z"/><path class="b" d="M300.739,98.953a183.787,183.787,0,0,1,16.086,10.539,82.628,82.628,0,0,1,12.2,10.3,32.66,32.66,0,0,1,5.3,7.352,47.859,47.859,0,0,1,3.18,8.841c1.79,6.337,3.5,12.7,5.037,19.1a222.816,222.816,0,0,1,5.779,36.2A269.269,269.269,0,0,1,348.154,227c-.907,14.506-2.418,28.968-3.716,43.442l2-2a134.688,134.688,0,0,1-14.279-.124c-5.224-.224-10.443-.546-15.66-.886-2.57-.167-2.559,3.833,0,4,5.217.34,10.436.661,15.66.886a134.423,134.423,0,0,0,14.279.124,2.063,2.063,0,0,0,2-2c2.261-25.212,5.477-50.6,4.08-75.953a222.808,222.808,0,0,0-5.373-37.254c-1.455-6.383-3.121-12.717-4.868-19.026-1.752-6.327-3.508-12.571-7.566-17.861-3.855-5.025-8.737-9-13.78-12.772A183.437,183.437,0,0,0,302.758,95.5c-2.234-1.288-4.251,2.167-2.019,3.454Z"/><path class="b" d="M301.215,156.847l0-.008-3.857,1.063c3.9,10.212,7.75,20.446,11.656,30.657q1.735,4.539,3.486,9.072c1.712,4.439,3.3,8.885,3.481,13.68.337,8.867-.87,17.745-1.493,26.573a221.883,221.883,0,0,0,.014,31.547c.183,2.553,4.185,2.573,4,0a214.535,214.535,0,0,1-.223-28.393c.547-8.971,1.72-17.926,1.745-26.922a39.776,39.776,0,0,0-2.055-13.18c-1.246-3.668-2.732-7.263-4.118-10.881q-3.918-10.22-7.8-20.454c-1.616-4.253-3.216-8.512-4.84-12.762a2.057,2.057,0,0,0-2.46-1.4,2.015,2.015,0,0,0-1.4,2.46l0,.008a2.056,2.056,0,0,0,2.46,1.4,2.016,2.016,0,0,0,1.4-2.46Z"/><path class="b" d="M296.583,93.846c3.247,4,6.214,8.3,7.807,13.248l.919-2.258a146.811,146.811,0,0,1-14.525,8.9,2.033,2.033,0,0,0-.4,3.141,50.368,50.368,0,0,1,3.769,5.654l.312-2.423a41.1,41.1,0,0,1-4.552,4.385c-2.452,2.151-4.969,4.23-7.5,6.289-5.308,4.318-10.695,8.538-16.115,12.713a2.067,2.067,0,0,0-.717,2.736,2.013,2.013,0,0,0,2.736.718c5.6-4.313,11.169-8.664,16.654-13.12,2.551-2.072,5.088-4.164,7.563-6.328a42.333,42.333,0,0,0,4.759-4.565,2.078,2.078,0,0,0,.312-2.424,57.406,57.406,0,0,0-4.393-6.463l-.405,3.141a147.117,147.117,0,0,0,14.525-8.9,2.05,2.05,0,0,0,.919-2.259c-1.816-5.642-5.135-10.449-8.836-15.013a2.012,2.012,0,0,0-2.828,0,2.046,2.046,0,0,0,0,2.828Z"/><path class="b" d="M261.354,112.068c-3.551,1.886-5.756,5.5-7.372,9.056a73.626,73.626,0,0,0-3.814,10.8c-2.019,7.261-3.119,14.671-4.644,22.034a75.6,75.6,0,0,1-3.1,11.168c-1.084,2.9-2.468,5.985-4.738,8.157-1.466,1.4-3.638,2.242-5.4,3.232q-2.871,1.619-5.743,3.236c-3.508,1.973-7.02,3.94-10.552,5.87q-12.228,6.681-24.856,12.568a2.039,2.039,0,0,0-.718,2.737,269.487,269.487,0,0,1,11.522,28.04,2.033,2.033,0,0,0,2.46,1.4,472.285,472.285,0,0,0,45.811-17.543,2.013,2.013,0,0,0,.718-2.736,2.053,2.053,0,0,0-2.737-.718,462.434,462.434,0,0,1-44.855,17.14l2.46,1.4a278.693,278.693,0,0,0-11.925-29l-.717,2.736c15.145-7.073,29.673-15.221,44.233-23.409a13.9,13.9,0,0,0,4.168-3.258,22.9,22.9,0,0,0,2.679-4.1,52.668,52.668,0,0,0,3.923-10.657c1.921-7.206,2.808-14.643,4.508-21.9a98.688,98.688,0,0,1,3.757-12.734c1.416-3.706,3.276-8.111,6.95-10.062,2.274-1.207.255-4.661-2.019-3.454Z"/><path class="b" d="M261.3,197.226c0,.162-.008.323-.011.485s.077.494.019-.04a2.53,2.53,0,0,1-.176.809c-.079.28-.179.55-.283.821.191-.5.031-.081-.026.033-.087.172-.173.344-.267.513-.147.265-.306.523-.474.775-.1.154-.21.3-.316.455-.289.414.12-.125-.136.18a21.735,21.735,0,0,1-1.559,1.695,37.017,37.017,0,0,1-9.883,6.42,2.018,2.018,0,0,0-.717,2.736,2.043,2.043,0,0,0,2.736.718,39.174,39.174,0,0,0,10.957-7.306c2.192-2.2,4.171-5.066,4.136-8.294a2,2,0,0,0-4,0Z"/><path class="a" d="M294.6,96.344c.855-1.279,1.67-3.328,2.48-4.629a37.038,37.038,0,0,0-2.018-5.244c-10.58,4.539-19.984,9.23-29.22,12.408,3.179,4.386,11.393,10.838,13.014,12.106a126.29,126.29,0,0,0,10.695-9.092A34.254,34.254,0,0,0,294.6,96.344Z"/><path class="b" d="M296.329,97.354a32.918,32.918,0,0,0,1.609-3.019c.627-1.25,1.369-2.142.92-3.586a40.684,40.684,0,0,0-2.067-5.288,2.049,2.049,0,0,0-2.737-.717c-9.556,4.109-18.9,8.8-28.742,12.207-1.1.38-2.015,1.826-1.195,2.938,3.6,4.881,8.578,8.8,13.327,12.51a2.078,2.078,0,0,0,2.424.313,66.178,66.178,0,0,0,7.738-6.331c3.12-2.75,6.362-5.581,8.723-9.027,1.459-2.129-2.006-4.132-3.454-2.019-2.147,3.134-5.257,5.714-8.1,8.218a61.942,61.942,0,0,1-6.928,5.7l2.424.313q-2.958-2.313-5.8-4.774a45.453,45.453,0,0,1-6.9-6.927l-1.2,2.938c10.169-3.522,19.825-8.365,29.7-12.611l-2.736-.717a48.5,48.5,0,0,1,1.816,4.767l.2-1.541c-.9,1.5-1.534,3.151-2.48,4.629C291.484,97.51,294.944,99.518,296.329,97.354Z"/><path class="b" d="M324.635,116.623a24.716,24.716,0,0,0-20.665,4.1,26.921,26.921,0,0,0-9.943,16.1,28.062,28.062,0,0,0-.3,9.807,2.013,2.013,0,0,0,2.46,1.4,2.051,2.051,0,0,0,1.4-2.46c-1.629-11,5.484-22.709,16.58-25.211a20.64,20.64,0,0,1,9.409.13c2.5.611,3.566-3.245,1.063-3.857Z"/><path class="b" d="M296.583,91.018A447.973,447.973,0,0,0,264.4,133.525q-4.411,6.54-8.707,13.157c-1.41,2.163,2.052,4.17,3.454,2.019,9.611-14.738,19.5-29.316,30.476-43.079q4.774-5.985,9.784-11.776c1.675-1.939-1.142-4.78-2.828-2.828Z"/><path class="b" d="M270.508,108.512c-1.563,4.107-2.778,8.378-4.09,12.568-1.664,5.314-3.4,10.644-4.694,16.062-.6,2.5,3.257,3.57,3.857,1.064,1.3-5.419,3.03-10.749,4.694-16.062,1.312-4.191,2.527-8.462,4.09-12.568a2.016,2.016,0,0,0-1.4-2.461,2.046,2.046,0,0,0-2.461,1.4Z"/><path class="b" d="M264.9,99.372c-2.155.764-3.94,2.057-4.162,4.492-.113,1.244-.116,2.509-.175,3.757-.079,1.686-.165,3.373-.194,5.06,0,.3,0,.59-.006.885,0,.338.087-.511.014,0-.015.106-.044.216-.065.321-.119.6-.232,1.2-.343,1.8-1.325,7.181-2.422,14.413-3.4,21.65-.462,3.439-.947,6.895-1.145,10.362-.147,2.571,3.854,2.563,4,0,.362-6.35,1.437-12.695,2.405-18.973.516-3.35,1.057-6.7,1.644-10.035.215-1.219.435-2.438.676-3.652a24.243,24.243,0,0,0,.26-3.887c.063-1.779.154-3.556.236-5.334.023-.488-.012-1.014.059-1.5.1-.69.574-.843,1.255-1.085,2.409-.855,1.372-4.721-1.063-3.857Z"/><path class="b" d="M268.831,275.752a53.4,53.4,0,0,0,.527,5.357c.04.244-.076-.638-.016-.109.017.148.037.3.055.443.051.426.1.853.147,1.279.3,2.64.568,5.283.842,7.926.677,6.538,1.332,13.079,2.027,19.615.216,2.034.382,4.089.712,6.108a2.015,2.015,0,0,0,2.46,1.4,2.047,2.047,0,0,0,1.4-2.46c-.1-.64.029.3-.023-.152-.042-.367-.089-.733-.131-1.1-.123-1.065-.237-2.131-.351-3.2q-.477-4.459-.93-8.924c-.632-6.146-1.242-12.3-1.917-18.436-.284-2.585-.638-5.148-.8-7.747-.158-2.557-4.159-2.575-4,0Z"/><path class="b" d="M65.563,136.432a79.949,79.949,0,0,1-4.856-9.649c-1.72-3.6-3.418-7.375-5.851-10.566a2.065,2.065,0,0,0-2.736-.718,2.013,2.013,0,0,0-.718,2.736A59.256,59.256,0,0,1,57.253,128.8a80.17,80.17,0,0,0,4.856,9.649c1.408,2.142,4.873.141,3.454-2.019Z"/><path class="b" d="M16.809,119.084c.428.049-.1-.018-.018-.006l.466.07c.393.061.786.13,1.178.2.921.166,1.839.348,2.756.535,2.361.481,4.714,1,7.065,1.528,4.6,1.034,9.192,2.114,13.778,3.209,1,.238,2,.544,3.008.718A2.026,2.026,0,0,0,47.4,124.18a1.977,1.977,0,0,0-.818-2.5c-.088-.038-.4-.179-.488-.205-2.48-.707-3.539,3.152-1.063,3.857l-.468-.2,1.541-3.655c-2.817-.487-5.615-1.342-8.4-1.995-4.954-1.164-9.913-2.317-14.9-3.347-1.987-.41-3.982-.823-6-1.055a2.012,2.012,0,0,0-2,2,2.047,2.047,0,0,0,2,2Z"/><path class="b" d="M144.912,166.778c3.1,5.757,6.557,11.315,9.763,17.013,1.262,2.244,4.719.229,3.454-2.019-3.206-5.7-6.663-11.256-9.763-17.012-1.221-2.268-4.675-.25-3.454,2.018Z"/><path class="b" d="M190.461,171.941,176.25,184.035a2.017,2.017,0,0,0,0,2.829,2.042,2.042,0,0,0,2.828,0l14.211-12.095a2.016,2.016,0,0,0,0-2.828,2.042,2.042,0,0,0-2.828,0Z"/><path class="b" d="M172,157.469c-2.14,8.136-4.019,16.352-5.864,24.559-.563,2.507,3.292,3.577,3.858,1.063,1.844-8.206,3.724-16.423,5.863-24.558.655-2.492-3.2-3.555-3.857-1.064Z"/><path class="b" d="M138.205,181.533c1.819,1.818,3.606,3.668,5.382,5.527a2.02,2.02,0,0,0,2.829,0,2.042,2.042,0,0,0,0-2.829c-1.777-1.858-3.563-3.709-5.382-5.526a2,2,0,0,0-2.829,2.828Z"/><path class="b" d="M56.164,116.853c.819-2.01,2.281-4.859,3.372-7.147q.52-1.091,1.033-2.186c.217-.465.49-1.588.882-1.906-.094.076-.432.065.236.114.342.025.705.141,1.045.2a25.151,25.151,0,0,0,2.6.28c6.236.34,13.31-.9,17.186-6.226a22.692,22.692,0,0,0,3.344-7.948c.343-1.37.623-2.757.856-4.15a34.85,34.85,0,0,1,.527-3.9c.734-2.51,3.44-3.544,4.7-5.695,1.741-2.966-.066-6.274-2.643-8-2.317-1.552-3.329-3.676-3.878-6.386a43.722,43.722,0,0,1-.514-8.908c.015-2.575-3.985-2.578-4,0-.03,5.144-.194,11.229,2.936,15.623a10.723,10.723,0,0,0,2.871,2.775c.813.536,2.182,1.4,1.92,2.6-.163.749-1.254,1.435-1.8,1.908a10.886,10.886,0,0,0-2.9,3.764c-1.026,2.3-1.013,5.081-1.533,7.539a24.251,24.251,0,0,1-2.641,7.71,9.957,9.957,0,0,1-6.7,4.6,25.2,25.2,0,0,1-9.267.559c-1.875-.267-3.636-.808-5.174.72-1.137,1.131-1.689,3.113-2.366,4.536-1.336,2.809-2.775,5.585-3.949,8.468a2.012,2.012,0,0,0,1.4,2.46,2.05,2.05,0,0,0,2.46-1.4Z"/><path class="b" d="M45.2,63.777c-2.263-3.231-6.177-5.77-10.18-4-3.18,1.408-4.325,5.039-4.257,8.283a19.1,19.1,0,0,0,10.482,16.4,2.052,2.052,0,0,0,2.737-.717,2.019,2.019,0,0,0-.718-2.737A15.279,15.279,0,0,1,34.9,69.7c-.275-1.8-.365-4.417,1.057-5.806,1.916-1.873,4.629.241,5.793,1.9a2.053,2.053,0,0,0,2.736.718,2.018,2.018,0,0,0,.718-2.737Z"/><path class="b" d="M82.982,85.517a21.243,21.243,0,0,1-2.509-.142l.532.071a5.246,5.246,0,0,1-1.341-.331l.478.2a2.718,2.718,0,0,1-.58-.339l.4.313-.021-.017a2.222,2.222,0,0,0-1.414-.586,2.037,2.037,0,0,0-1.415.586,2.009,2.009,0,0,0-.585,1.414,1.933,1.933,0,0,0,.585,1.414,4.722,4.722,0,0,0,.993.662,6.2,6.2,0,0,0,1.317.454,19,19,0,0,0,3.556.3,2.05,2.05,0,0,0,1.414-.585,2,2,0,0,0-1.414-3.415Z"/><path class="b" d="M77.677,62.586c.53,1.674.3,5.554-2.724,5.942-4,.053-4.322-4.627-3.025-6.855C72.991,59.849,76.217,59.036,77.677,62.586Z"/><path class="b" d="M23.2,98.321c.241-5.27-3.3-8.99-6.3-12.858A72.24,72.24,0,0,1,9.033,72.624a49.374,49.374,0,0,1-4.8-14.819,44.484,44.484,0,0,1,1.2-15.951,25.048,25.048,0,0,1,7.11-12.885c1.906-1.739-.929-4.562-2.828-2.829C2.023,33.162-.141,44.7.007,54.687A43.4,43.4,0,0,0,3.7,70.436a77.332,77.332,0,0,0,7.844,14.438c1.4,2.023,2.99,3.882,4.484,5.827,1.747,2.275,3.309,4.64,3.173,7.62-.118,2.574,3.882,2.568,4,0Z"/><path class="b" d="M36.658,80.88A25.7,25.7,0,0,1,29.493,88a39.581,39.581,0,0,1-9.249,4.92,2.052,2.052,0,0,0-1.4,2.46,2.017,2.017,0,0,0,2.46,1.4A43.161,43.161,0,0,0,31.74,91.294,30.3,30.3,0,0,0,40.112,82.9c1.364-2.192-2.095-4.2-3.454-2.019Z"/><path class="f" d="M82.911,54.989c2.017-24.547-15.026-33.715-27.255-36.25a46.12,46.12,0,0,0-34.507,6C13.719,29.3,4.516,40.22,5.491,59.458c.4,8.91,3.429,18.828,10.522,28.912,1.217,1.731,2.545,3.6,3.76,5.567"/><path class="b" d="M69.359,82.205a29.45,29.45,0,0,0-.8,2.991,2.115,2.115,0,0,0,.2,1.541,2,2,0,0,0,2.736.718,2,2,0,0,0,.919-1.195,29.468,29.468,0,0,1,.8-2.992,1.512,1.512,0,0,0,.035-.8,1.492,1.492,0,0,0-.237-.744,2,2,0,0,0-2.736-.717,2.17,2.17,0,0,0-.919,1.195Z"/><path class="b" d="M84.911,54.989c.028-4.323.314-8.714-.652-12.967a2.015,2.015,0,0,0-2.46-1.4,2.044,2.044,0,0,0-1.4,2.46q.169.743.285,1.5c.016.1.031.2.045.308q-.039-.281.007.092c.028.281.06.562.084.844.086,1.008.125,2.019.141,3.03.031,2.045-.039,4.089-.053,6.134a2,2,0,1,0,4,0Z"/><path class="b" d="M74.776,40.893a36.787,36.787,0,0,1-7.548.981c-2.456.131-4.919.16-7.378.1-2.575-.059-2.574,3.941,0,4,5.277.121,10.849.09,15.99-1.228,2.492-.638,1.435-4.5-1.064-3.857Z"/><path class="b" d="M59.85,41.978c-2.691.027-3.924,3.326-4.767,5.388-.482,1.178-.9,2.382-1.3,3.59-.157.474-.309.949-.465,1.422-.079.24-.5,1.3-.132.468l3.141-.4c-1.359-1.309-2.528-3.31-4.45-3.856C49.544,47.922,48.157,50,47.3,51.818c-1.833,3.869-3.658,7.744-5.373,11.668a2.065,2.065,0,0,0,.718,2.736,2.014,2.014,0,0,0,2.736-.717c1.526-3.491,3.14-6.942,4.766-10.386q.372-.787.744-1.572c.109-.231.212-.466.333-.691.236-.437.635-.587-.067-.5-.622.081-.509-.107-.392.089.068.113.164.123.232.178a9.058,9.058,0,0,1,.838.836c.558.6,1.075,1.239,1.665,1.808.834.8,2.607.817,3.141-.405.735-1.682,1.183-3.488,1.823-5.208a18.027,18.027,0,0,1,1.231-2.8c.115-.209.237-.413.364-.616.058-.092.122-.181.184-.271.163-.235-.22.237-.036.051a2.294,2.294,0,0,0,.185-.2c.158-.2.124,0,.029-.038-.028-.012-.08.067-.164.1s-.623.1-.405.1c2.572-.026,2.579-4.026,0-4Z"/><path class="b" d="M82.449,43.538c3.494-1.629,4.563-6.225,3.984-9.729a15.5,15.5,0,0,0-4.987-8.784A48.074,48.074,0,0,0,64.411,14.833c-1.563-.522-2.717,1.066-2.46,2.46h0l2.938-2.258c-6.159-2.777-13.292-3.6-19.983-3.664C36.443,11.3,27.66,12.752,20.167,16.85A30.981,30.981,0,0,0,9.4,26.545c-1.456,2.131,2.009,4.134,3.454,2.019C21.565,15.822,40.115,13.827,54.074,16.12A48.886,48.886,0,0,1,59.2,17.228c.7.192,1.39.4,2.074.64.34.118.677.241,1.012.372l.318.127c.318.129-.23-.1.271.121a2.03,2.03,0,0,0,2.938-2.258h0l-2.46,2.46A42.649,42.649,0,0,1,77.5,26.861,13.834,13.834,0,0,1,82.131,33.1c.719,2.169.847,5.8-1.7,6.986a2.018,2.018,0,0,0-.718,2.737,2.047,2.047,0,0,0,2.737.717Z"/><path class="b" d="M192.12,199.736c-2.249.775-4.465,1.644-6.714,2.418a2.032,2.032,0,0,0-1.4,2.461,184.237,184.237,0,0,0,9.7,24.148,2.005,2.005,0,0,0,2.259.919c2.411-.9,4.848-1.732,7.26-2.632,2.39-.893,1.355-4.761-1.063-3.857s-4.849,1.731-7.261,2.632l2.259.919a176.7,176.7,0,0,1-9.3-23.193l-1.4,2.46c2.249-.774,4.464-1.643,6.713-2.418,2.42-.833,1.38-4.7-1.063-3.857Z"/><path class="b" d="M138.675,210.927c2.507.981,5.007,1.982,7.53,2.921l-1.4-2.46c-2.528,8.647-5.325,17.24-8.626,25.626l2.46-1.4c-2.776-.969-5.535-1.986-8.311-2.955-2.435-.85-3.482,3.013-1.063,3.857,2.776.969,5.535,1.987,8.311,2.955a2.044,2.044,0,0,0,2.46-1.4c3.3-8.385,6.1-16.978,8.626-25.626a2.047,2.047,0,0,0-1.4-2.46c-2.523-.939-5.024-1.94-7.53-2.921a2.015,2.015,0,0,0-2.461,1.4,2.047,2.047,0,0,0,1.4,2.46Z"/><path class="b" d="M261.245,98.208q-1.176,3.036-2.191,6.131-.505,1.547-.969,3.108c-.154.52-.3,1.042-.453,1.563-.028.1-.229.627-.027.2a1.921,1.921,0,0,1-.158.284,1.266,1.266,0,0,1,1.007-.591,2.018,2.018,0,0,0-2,2,2.038,2.038,0,0,0,2,2c1.627.041,2.595-1.305,3-2.721.356-1.228.712-2.456,1.1-3.676q1.156-3.659,2.547-7.238a2.007,2.007,0,0,0-1.4-2.46,2.057,2.057,0,0,0-2.46,1.4Z"/></svg>